<?xml version="1.0" encoding="utf-8"?>
<!-- Generator: Adobe Illustrator 21.0.2, SVG Export Plug-In . SVG Version: 6.00 Build 0)  -->
<svg version="1.1" id="Capa_1" xmlns="http://www.w3.org/2000/svg" xmlns:xlink="http://www.w3.org/1999/xlink" x="0px" y="0px"
	 viewBox="0 0 480 360" style="enable-background:new 0 0 480 360;" xml:space="preserve">
<style type="text/css">
	.st0{fill:#FFFFFF;}
</style>
<g>
	<g>
		<path class="st0" d="M475.9,169.3l-144-160C328.8,5.9,324.5,4,320,4h-96c-6.3,0-12,3.7-14.6,9.5s-1.5,12.5,2.7,17.2L346.5,180
			L212.1,329.3c-4.2,4.7-5.3,11.5-2.7,17.2c2.6,5.8,8.3,9.5,14.6,9.5h96c4.5,0,8.8-2,11.9-5.3l144-160
			C481.4,184.7,481.4,175.4,475.9,169.3z"/>
	</g>
</g>
<g>
	<g>
		<path class="st0" d="M267.9,169.3l-144-160C120.8,5.9,116.5,4,112,4H16C9.7,4,4,7.7,1.4,13.5S-0.1,26,4.1,30.7L138.5,180
			L4.1,329.3c-4.2,4.7-5.3,11.5-2.7,17.2C4,352.3,9.7,356,16,356h96c4.5,0,8.8-2,11.9-5.3l144-160
			C273.4,184.7,273.4,175.4,267.9,169.3z"/>
	</g>
</g>
</svg>
