<?xml version="1.0" encoding="utf-8"?>
<!-- Generator: Adobe Illustrator 21.0.2, SVG Export Plug-In . SVG Version: 6.00 Build 0)  -->
<svg version="1.1" id="Capa_1" xmlns="http://www.w3.org/2000/svg" xmlns:xlink="http://www.w3.org/1999/xlink" x="0px" y="0px"
	 viewBox="0 0 512 512" style="enable-background:new 0 0 512 512;" xml:space="preserve">
<style type="text/css">
	.st0{fill:#FFFFFF;}
</style>
<path class="st0" d="M464,64H48C21.5,64,0,85.5,0,112v288c0,26.5,21.5,48,48,48h416c26.5,0,48-21.5,48-48V112
	C512,85.5,490.5,64,464,64z M461,105c2.2,0,4.2,0.5,6.1,1.2L256,277.8L45.9,106.2c1.9-0.8,4-1.2,6.1-1.2H461z M461,413H52
	c-8.8,0-16-7.2-16-16V150l209.5,180c3,2.6,6.8,3.9,10.5,3.9c3.7,0,7.5-1.3,10.5-3.9L477,150v247C477,405.8,469.8,413,461,413z"/>
</svg>
