<?xml version="1.0" encoding="utf-8"?>
<!-- Generator: Adobe Illustrator 21.0.2, SVG Export Plug-In . SVG Version: 6.00 Build 0)  -->
<svg version="1.1" id="Capa_1" xmlns="http://www.w3.org/2000/svg" xmlns:xlink="http://www.w3.org/1999/xlink" x="0px" y="0px"
	 viewBox="0 0 469.3 320" style="enable-background:new 0 0 469.3 320;" xml:space="preserve">
<style type="text/css">
	.st0{fill:#FFFFFF;}
</style>
<g>
	<g>
		<g>
			<path class="st0" d="M234.7,96c-35.3,0-64,28.7-64,64s28.7,64,64,64s64-28.7,64-64S270,96,234.7,96z"/>
			<path class="st0" d="M234.7,0C128,0,36.9,66.3,0,160c36.9,93.7,128,160,234.7,160c106.8,0,197.8-66.3,234.7-160
				C432.4,66.3,341.4,0,234.7,0z M234.7,266.7C175.8,266.7,128,218.9,128,160S175.8,53.3,234.7,53.3S341.3,101.1,341.3,160
				S293.5,266.7,234.7,266.7z"/>
		</g>
	</g>
</g>
</svg>
