<?xml version="1.0" encoding="utf-8"?>
<!-- Generator: Adobe Illustrator 21.0.2, SVG Export Plug-In . SVG Version: 6.00 Build 0)  -->
<svg version="1.1" id="Layer_1" xmlns="http://www.w3.org/2000/svg" xmlns:xlink="http://www.w3.org/1999/xlink" x="0px" y="0px"
	 viewBox="0 0 512 512" style="enable-background:new 0 0 512 512;" xml:space="preserve">
<style type="text/css">
	.st0{fill:#2475FB;}
</style>
<path class="st0" d="M232.5,390.3c-3.9,3.9-3.9,10.2,0,14.1c3.9,3.9,10.2,3.9,14.1,0c3.9-3.9,3.9-10.2,0-14.1
	C242.7,386.4,236.4,386.4,232.5,390.3z"/>
<path class="st0" d="M488.9,373L413,308.4c-0.4-0.3-0.7-0.6-1.1-0.8c-19.9-12.7-45.5-9.9-62.2,6.8l-41.4,41.4
	c-2.9,2.9-7.1,3.7-10.9,2.2c-46.7-19.3-78.1-26.4-107.1-64.5c-22.1-29-37.1-74.1-38.1-77.3c-0.1-0.7-0.6-1.6-0.9-2.3
	c-1.2-5.7,1.5-9.7,2.5-10.6l41.4-41.4c16.7-16.7,19.5-42.3,6.8-62.2c-0.1-0.2-0.2-0.3-0.3-0.5l-54.8-76.2
	C129.5-3.9,92-7.9,69.4,14.6l-8.3,8.3c0,0,0,0,0,0L31.5,52.6C-3.8,87.8-9.6,140.9,14.8,205.9c20.9,55.7,62.7,116.7,117.7,171.7
	c56.3,56.3,118.9,98.9,176.3,119.8c56.8,20.8,117.3,23.3,160.1-19.5l27.9-27.9C519.3,427.6,515.3,390.3,488.9,373z M397.9,317
	l85.8,72.9c0.4,0.3,0.8,0.6,1.2,0.9c18.3,11.7,21.1,37.3,5.8,52.6l-0.3,2.3L344.1,337.2l12.3-15.3
	C367.5,310.8,384.5,308.8,397.9,317z M129.3,25.4c0.1,0.2,0.2,0.4,0.4,0.5l63.1,87.7c8.6,13.7,6.6,31.2-4.9,42.7l-14.1,14.1L73,22.3
	l2.7-2.7C91.4,3.9,117.4,6.9,129.3,25.4z M318.5,486.9c-56.9-20.8-119.2-63.3-175.7-119.7C87.8,312.1,46,251.4,25.4,196.2
	C9.9,154.8-0.5,97.3,38,58.8l22-22l90.9,133.7l-15.3,15.3c-8.7,8.7-11.5,21.6-7.1,33.1c3.3,13.5,18.4,41.4,33.6,62
	c22.4,30.3,63.1,72.2,129.6,99.7c11.7,4.8,25,2.2,34-6.8l15.1-15.1L475,459.5l-12,12C421.7,512.7,361.6,502.6,318.5,486.9z"/>
<path class="st0" d="M213.7,366.4c-10.6-9.3-28.8-25.2-38.5-35.1c-23.6-24.2-48.3-53.6-63.1-74.9c-3.1-4.5-9.4-5.7-13.9-2.5
	c-4.5,3.1-5.7,9.4-2.5,13.9c18.6,26.8,45.8,57.6,65.2,77.4c10.2,10.5,28.6,26.5,39.6,36.2c4.1,3.6,10.5,3.2,14.1-0.9
	C218.3,376.4,217.9,370.1,213.7,366.4z"/>
</svg>
