<?xml version="1.0" encoding="utf-8"?>
<!-- Generator: Adobe Illustrator 21.0.2, SVG Export Plug-In . SVG Version: 6.00 Build 0)  -->
<svg version="1.1" id="Layer_1" xmlns="http://www.w3.org/2000/svg" xmlns:xlink="http://www.w3.org/1999/xlink" x="0px" y="0px"
	 viewBox="0 0 90 114" style="enable-background:new 0 0 90 114;" xml:space="preserve">
<style type="text/css">
	.st0{fill:#7A86DD;}
	.st1{fill:#FF786B;}
	.st2{fill:#4F5269;}
</style>
<path class="st0" d="M49.4,19.4h-8.3V16c0-1.6-0.6-3.2-1.8-4.3S36.7,9.9,35,9.9c-1.5,0-2.9,0.5-4.1,1.6c-1,0.8-1.6,2-1.9,3.2h0
	c-0.2,0-0.5,0-0.7,0c-1.6,0-3.2,0.6-4.3,1.8s-1.8,2.7-1.8,4.3c0,0.8,0.1,1.6,0.4,2.3l0.1,0.1c-0.2,0.2-0.3,0.4-0.4,0.7
	c-1.3,0.2-2.5,0.8-3.5,1.7c-1.2,1.2-1.8,2.7-1.8,4.3c0,0.5,0.1,0.9,0.2,1.4c-0.6,0.5-0.9,1.2-0.9,1.9c0,0.5,0.2,1,0.5,1.5
	c-0.1,0.2-0.2,0.4-0.3,0.6c-0.5,1-0.7,2.1-0.7,3.1c0,2,0.8,3.9,2.2,5.3c1,1,2.2,1.7,3.6,2c0.1,0.4,0.4,0.7,0.7,1
	c-0.1,0.4-0.1,0.8-0.1,1.1c0,1.6,0.6,3.2,1.8,4.3c0.8,0.8,1.8,1.4,2.9,1.6c0.2,1,1.1,1.7,2.1,1.7c0,0,0,0,0,0
	c0.4,0.7,0.9,1.3,1.5,1.9c1.2,1,2.6,1.6,4.2,1.6c1.7,0,3.3-0.7,4.5-1.9c1.2-1.2,1.9-2.8,1.9-4.5v-14h-8.1c-0.2-0.7-0.8-1.3-1.5-1.5
	v-5.3c0.7-0.2,1.3-0.8,1.5-1.5h8.1v-9.5h8.3V19.4z M24.9,17.3c0.9-0.9,2.1-1.4,3.4-1.4c0.2,0,0.4,0,0.5,0c0.1,0,0.2,0,0.3,0.1
	l2.8,2.9c-0.4,0.4-0.6,1-0.6,1.5c0,0.1,0,0.2,0,0.3l-5.4,2.4c-0.4-0.5-1-0.8-1.7-0.8c-0.2,0-0.4,0-0.6,0.1c-0.2-0.5-0.3-1.1-0.3-1.7
	C23.5,19.4,24,18.2,24.9,17.3z M30.3,31.7v2l-8.9-0.8c-0.1-0.5-0.3-1-0.7-1.3l3.1-4.9c0.2,0.1,0.4,0.1,0.6,0.1
	c0.4,0,0.8-0.1,1.2-0.4l3.3,2.5c-0.1,0.3-0.1,0.5-0.1,0.8C28.8,30.6,29.4,31.4,30.3,31.7z M19.8,26.4c0.7-0.7,1.6-1.2,2.6-1.3
	c0.1,0.3,0.2,0.5,0.4,0.8l-3.1,4.9c-0.2-0.1-0.5-0.1-0.8-0.1c-0.1,0-0.3,0-0.4,0c-0.1-0.3-0.1-0.6-0.1-0.9
	C18.4,28.6,18.9,27.4,19.8,26.4z M21.6,44.4c-1-0.3-1.9-0.8-2.6-1.6c-1.2-1.2-1.8-2.7-1.8-4.4c0-0.9,0.2-1.8,0.6-2.6
	c0-0.1,0.1-0.2,0.2-0.3c0.3,0.2,0.7,0.2,1.1,0.2c0.1,0,0.2,0,0.3,0l3.1,7.6C21.9,43.6,21.7,44,21.6,44.4z M20.4,35.3
	c0.4-0.3,0.7-0.7,0.9-1.2l9.1,0.9V37c-0.9,0.3-1.6,1.1-1.6,2.1c0,0.3,0.1,0.6,0.2,0.8l-4,3.2c-0.4-0.2-0.8-0.4-1.2-0.4
	c-0.1,0-0.1,0-0.2,0L20.4,35.3z M27,52.5c-0.8-0.2-1.5-0.7-2.1-1.2c-0.9-0.9-1.4-2.1-1.4-3.4c0-0.2,0-0.5,0-0.7c0,0,0.1,0,0.1,0
	c0.2,0,0.4,0,0.6-0.1l3.1,4.8C27.2,52.1,27.1,52.3,27,52.5z M29.9,51.3c-0.3-0.1-0.6-0.2-0.9-0.2c-0.2,0-0.4,0-0.6,0.1l-3.1-4.8
	c0.1-0.2,0.2-0.3,0.3-0.5l7.3,0.8c0.1,0.3,0.1,0.5,0.3,0.7L29.9,51.3z M38.4,56.1c-1,1-2.3,1.5-3.6,1.5c-1.2,0-2.4-0.4-3.4-1.3
	c-0.4-0.4-0.8-0.8-1.1-1.3c0.6-0.4,0.9-1.1,0.9-1.8c0-0.4-0.1-0.8-0.3-1.2l3.4-3.9c0.3,0.1,0.6,0.2,0.9,0.2c0.2,0,0.5,0,0.7-0.1
	l3.9,5.4C39.5,54.6,39,55.4,38.4,56.1z M39.9,51.7L37,47.8l2.9,1.3V51.7z M39.9,47.7l-2.6-1.1c0-0.1,0-0.2,0-0.3
	c0-0.5-0.1-0.9-0.4-1.3l3-3.9L39.9,47.7L39.9,47.7z M33.1,39.8h6.2l-3.4,4.4c-0.2-0.1-0.5-0.1-0.8-0.1c-0.2,0-0.3,0-0.5,0.1l-2-3.5
	C32.8,40.4,33,40.1,33.1,39.8z M33.5,44.8c-0.2,0.2-0.3,0.4-0.4,0.6l-7.3-0.8c0-0.1-0.1-0.3-0.1-0.4l4-3.2c0.4,0.3,0.8,0.4,1.3,0.4
	c0.2,0,0.3,0,0.5-0.1L33.5,44.8z M33.6,29h-0.5c-0.3-0.9-1.1-1.6-2.1-1.6c-0.5,0-0.9,0.1-1.3,0.4l-3.2-2.5c0.1-0.3,0.2-0.5,0.2-0.8
	c0-0.1,0-0.2,0-0.2l5.4-2.4c0.4,0.5,1,0.7,1.6,0.8L33.6,29z M33.2,18.2l-3-3c0.2-1.1,0.7-2.1,1.5-2.8c0.9-0.8,2-1.2,3.2-1.2
	c1.3,0,2.5,0.5,3.4,1.4c0.9,0.9,1.4,2.1,1.4,3.4v3.4h-2.1h-2c-0.4-0.8-1.2-1.3-2-1.3C33.6,18.1,33.4,18.1,33.2,18.2z M39.9,29h-5.1
	l0-6.7c0.6-0.3,1-0.9,1.1-1.6h1.8h2.1V29z"/>
<path class="st1" d="M74.1,35.3c-0.1-0.2-0.2-0.4-0.3-0.6c0.3-0.4,0.5-0.9,0.5-1.5c0-0.8-0.3-1.5-0.9-1.9c0.1-0.5,0.2-0.9,0.2-1.4
	c0-1.6-0.6-3.2-1.8-4.3c-0.9-0.9-2.2-1.5-3.5-1.7c-0.1-0.3-0.2-0.5-0.4-0.7l0-0.1c0.3-0.7,0.4-1.5,0.4-2.3c0-1.6-0.6-3.2-1.8-4.3
	c-1.2-1.2-2.7-1.8-4.3-1.8c-0.2,0-0.5,0-0.7,0h0c-0.3-1.2-0.9-2.4-1.9-3.2c-1.1-1-2.6-1.6-4.1-1.6c-1.6,0-3.2,0.6-4.3,1.8
	s-1.8,2.7-1.8,4.3v14.2h8.1c0.2,0.7,0.8,1.3,1.5,1.5V37c-0.7,0.2-1.3,0.8-1.5,1.5h-8.1v9.2h-8.3v1.3h8.3v3.5c0,1.7,0.7,3.3,1.9,4.5
	c1.2,1.2,2.8,1.9,4.5,1.9c1.5,0,3-0.6,4.2-1.6c0.6-0.5,1.1-1.1,1.5-1.9c0,0,0,0,0,0c1,0,1.9-0.7,2.1-1.7c1.1-0.3,2.1-0.8,2.9-1.6
	c1.2-1.2,1.8-2.7,1.8-4.3c0-0.4,0-0.8-0.1-1.1c0.3-0.3,0.6-0.6,0.7-1c1.4-0.3,2.6-1,3.6-2c1.4-1.4,2.2-3.3,2.2-5.3
	C74.7,37.4,74.5,36.3,74.1,35.3z M68.2,25.1c1,0.2,1.9,0.6,2.6,1.3c0.9,0.9,1.4,2.1,1.4,3.4c0,0.3,0,0.6-0.1,0.9c-0.1,0-0.3,0-0.4,0
	c-0.3,0-0.5,0-0.8,0.1l-3.1-4.9C68,25.7,68.1,25.4,68.2,25.1z M61.7,28.8l3.3-2.5c0.4,0.2,0.8,0.4,1.2,0.4c0.2,0,0.4,0,0.6-0.1
	l3.1,4.9c-0.3,0.4-0.6,0.8-0.7,1.3l-8.9,0.8v-2c0.9-0.3,1.6-1.1,1.6-2.1C61.8,29.3,61.8,29.1,61.7,28.8z M61.7,15.9
	c0.2,0,0.4,0,0.5,0c1.3,0,2.5,0.5,3.4,1.4c0.9,0.9,1.4,2.1,1.4,3.4c0,0.6-0.1,1.1-0.3,1.7c-0.2-0.1-0.4-0.1-0.6-0.1
	c-0.6,0-1.3,0.3-1.7,0.8l-5.4-2.4c0-0.1,0-0.2,0-0.3c0-0.6-0.2-1.1-0.6-1.5l2.8-2.9C61.4,15.9,61.6,15.9,61.7,15.9z M50.7,29v-8.3
	h3.9c0.1,0.7,0.5,1.2,1.1,1.6l0,6.7H50.7z M54.8,19.4h-4.1V16c0-1.3,0.5-2.5,1.4-3.4c0.9-0.9,2.1-1.4,3.4-1.4c1.2,0,2.3,0.4,3.2,1.2
	c0.8,0.7,1.4,1.7,1.6,2.8l-3,3c-0.2,0-0.3-0.1-0.5-0.1C56,18.1,55.2,18.6,54.8,19.4z M57.5,29H57l0-6.4c0.6,0,1.2-0.3,1.6-0.8
	l5.4,2.4c0,0.1,0,0.2,0,0.2c0,0.3,0.1,0.6,0.2,0.8l-3.2,2.5c-0.4-0.3-0.8-0.4-1.3-0.4C58.6,27.4,57.8,28,57.5,29z M59.1,41.3
	c0.2,0,0.3,0.1,0.5,0.1c0.4,0,0.9-0.1,1.3-0.4l4,3.2c-0.1,0.1-0.1,0.3-0.1,0.4l-7.3,0.8c-0.1-0.2-0.2-0.4-0.4-0.6L59.1,41.3z
	 M57.5,39.8c0.1,0.3,0.3,0.6,0.5,0.9l-2,3.5c-0.2,0-0.3-0.1-0.5-0.1c-0.3,0-0.5,0-0.7,0.1l-3.4-4.4H57.5z M50.7,41l3,3.9
	c-0.3,0.4-0.4,0.8-0.4,1.3c0,0.1,0,0.2,0,0.3l-2.6,1.1V41z M50.7,49.1l2.9-1.3l-2.9,3.9V49.1z M59.2,56.4c-0.9,0.8-2.1,1.3-3.4,1.3
	c-1.4,0-2.7-0.5-3.6-1.5c-0.7-0.7-1.1-1.5-1.4-2.4l3.9-5.4c0.2,0.1,0.5,0.1,0.7,0.1c0.3,0,0.6-0.1,0.9-0.2l3.4,3.9
	c-0.2,0.3-0.3,0.7-0.3,1.2c0,0.7,0.3,1.4,0.9,1.8C60,55.6,59.6,56,59.2,56.4z M62.2,51.2c-0.2-0.1-0.4-0.1-0.6-0.1
	c-0.3,0-0.6,0.1-0.9,0.2l-3.4-3.9c0.1-0.2,0.2-0.5,0.3-0.7l7.3-0.8c0.1,0.2,0.2,0.4,0.3,0.5L62.2,51.2z M65.7,51.3
	c-0.6,0.6-1.3,1-2.1,1.2c-0.1-0.2-0.2-0.4-0.4-0.6l3.1-4.8c0.2,0.1,0.4,0.1,0.6,0.1c0,0,0.1,0,0.1,0c0,0.2,0,0.5,0,0.7
	C67.1,49.1,66.6,50.4,65.7,51.3z M67.1,42.8c-0.1,0-0.1,0-0.2,0c-0.4,0-0.9,0.1-1.2,0.4l-4-3.2c0.1-0.3,0.2-0.5,0.2-0.8
	c0-1-0.6-1.8-1.6-2.1V35l9.1-0.9c0.2,0.5,0.5,0.9,0.9,1.2L67.1,42.8z M71.7,42.8c-0.7,0.7-1.6,1.3-2.6,1.6c-0.1-0.4-0.4-0.8-0.7-1.1
	l3.1-7.6c0.1,0,0.2,0,0.3,0c0.4,0,0.7-0.1,1.1-0.2c0.1,0.1,0.1,0.2,0.2,0.3c0.4,0.8,0.6,1.7,0.6,2.6C73.5,40.1,72.8,41.7,71.7,42.8z
	"/>
<path class="st2" d="M7.1,93V81.8h5.3c1.2,0,2.3,0.2,3.3,0.7c0.9,0.5,1.7,1.1,2.2,1.9c0.5,0.8,0.8,1.8,0.8,3c0,1.1-0.3,2.1-0.8,3
	c-0.5,0.8-1.3,1.5-2.2,1.9c-0.9,0.5-2,0.7-3.3,0.7H7.1z M10.3,90.5h2c0.6,0,1.2-0.1,1.7-0.4c0.5-0.2,0.9-0.6,1.1-1
	c0.3-0.5,0.4-1,0.4-1.7s-0.1-1.2-0.4-1.7c-0.3-0.5-0.6-0.8-1.1-1.1c-0.5-0.2-1-0.4-1.7-0.4h-2V90.5z M28.7,93l-0.9-2.2h-4.7L22.2,93
	H19l4.9-11.2h3.1L32,93H28.7z M24,88.5h2.9l-1.4-3.6L24,88.5z M41.3,93l-0.9-2.2h-4.7L34.8,93h-3.2l4.9-11.2h3.1l5,11.2H41.3z
	 M36.6,88.5h2.9l-1.4-3.6L36.6,88.5z M58.5,93h-2.9l0-5.9l-2.9,4.8h-1.4l-2.9-4.7V93h-2.9V81.8h2.6l3.9,6.5l3.8-6.5h2.6L58.5,93z
	 M66.4,93.2c-1.2,0-2.3-0.3-3.2-0.8c-0.9-0.5-1.7-1.2-2.2-2.1c-0.5-0.9-0.8-1.9-0.8-3c0-1.1,0.3-2.1,0.8-3c0.5-0.9,1.3-1.6,2.2-2.1
	c0.9-0.5,2-0.8,3.2-0.8c1.2,0,2.3,0.3,3.2,0.8c0.9,0.5,1.7,1.2,2.2,2.1c0.5,0.9,0.8,1.9,0.8,3c0,1.1-0.3,2.1-0.8,3
	c-0.5,0.9-1.3,1.6-2.2,2.1C68.7,93,67.6,93.2,66.4,93.2z M66.4,90.6c0.6,0,1.1-0.1,1.5-0.4c0.5-0.3,0.8-0.6,1.1-1.1
	c0.3-0.5,0.4-1,0.4-1.7s-0.1-1.2-0.4-1.7s-0.6-0.9-1.1-1.1c-0.5-0.3-1-0.4-1.5-0.4c-0.6,0-1.1,0.1-1.5,0.4c-0.5,0.3-0.8,0.6-1.1,1.1
	c-0.3,0.5-0.4,1-0.4,1.7s0.1,1.2,0.4,1.7c0.3,0.5,0.6,0.9,1.1,1.1C65.3,90.5,65.8,90.6,66.4,90.6z M78.2,93.2
	c-0.9,0-1.8-0.1-2.6-0.3c-0.8-0.2-1.5-0.5-2.1-0.9l1-2.3c0.5,0.3,1.1,0.6,1.7,0.8c0.7,0.2,1.3,0.3,1.9,0.3c0.7,0,1.1-0.1,1.4-0.2
	c0.3-0.2,0.4-0.4,0.4-0.7c0-0.2-0.1-0.4-0.3-0.6c-0.2-0.1-0.5-0.3-0.8-0.4c-0.3-0.1-0.7-0.2-1.1-0.3c-0.4-0.1-0.8-0.2-1.1-0.3
	c-0.4-0.1-0.8-0.2-1.1-0.4c-0.4-0.2-0.7-0.4-1-0.6c-0.3-0.2-0.5-0.5-0.7-0.9c-0.2-0.4-0.2-0.8-0.2-1.3c0-0.7,0.2-1.3,0.5-1.8
	c0.4-0.6,0.9-1,1.6-1.3c0.7-0.3,1.7-0.5,2.8-0.5c0.7,0,1.4,0.1,2.2,0.2c0.7,0.2,1.3,0.4,1.9,0.7l-1,2.4c-1.1-0.6-2.1-0.9-3.1-0.9
	c-0.4,0-0.8,0-1.1,0.1c-0.3,0.1-0.5,0.2-0.6,0.4c-0.1,0.2-0.2,0.3-0.2,0.5c0,0.2,0.1,0.4,0.3,0.5c0.2,0.1,0.5,0.2,0.8,0.3
	c0.3,0.1,0.7,0.2,1.1,0.3c0.4,0.1,0.8,0.2,1.1,0.3c0.4,0.1,0.8,0.2,1.1,0.4c0.4,0.2,0.7,0.4,1,0.6c0.3,0.2,0.5,0.5,0.7,0.9
	c0.2,0.4,0.3,0.8,0.3,1.3c0,0.5-0.1,0.9-0.3,1.4c-0.2,0.4-0.5,0.8-0.9,1.2c-0.4,0.3-0.9,0.6-1.5,0.8C79.8,93.1,79.1,93.2,78.2,93.2z
	"/>
<path class="st2" d="M6.6,102v-5H8c0.4,0,0.8,0.1,1.1,0.3c0.3,0.2,0.6,0.5,0.8,0.8c0.2,0.3,0.3,0.7,0.3,1.2v0.5
	c0,0.4-0.1,0.8-0.3,1.2c-0.2,0.3-0.4,0.6-0.8,0.8C8.8,101.9,8.4,102,8,102H6.6z M7.1,97.4v4.3H8c0.5,0,0.9-0.2,1.3-0.5
	c0.3-0.3,0.5-0.8,0.5-1.4v-0.4c0-0.6-0.2-1-0.5-1.4c-0.3-0.3-0.7-0.5-1.2-0.5H7.1z M11.6,102h-0.4v-3.7h0.4V102z M11.1,97.2
	c0-0.1,0-0.1,0.1-0.2c0.1-0.1,0.1-0.1,0.2-0.1c0.1,0,0.2,0,0.2,0.1c0.1,0.1,0.1,0.1,0.1,0.2c0,0.1,0,0.1-0.1,0.2
	c-0.1,0.1-0.1,0.1-0.2,0.1c-0.1,0-0.2,0-0.2-0.1C11.1,97.4,11.1,97.3,11.1,97.2z M12.5,100.1c0-0.6,0.1-1,0.4-1.4
	c0.3-0.3,0.6-0.5,1-0.5c0.5,0,0.9,0.2,1.1,0.6l0-0.5h0.4v3.6c0,0.5-0.1,0.9-0.4,1.1s-0.6,0.4-1.1,0.4c-0.3,0-0.5-0.1-0.7-0.2
	c-0.2-0.1-0.4-0.3-0.6-0.5l0.2-0.2c0.3,0.4,0.6,0.5,1,0.5c0.3,0,0.6-0.1,0.8-0.3c0.2-0.2,0.3-0.5,0.3-0.8v-0.5
	c-0.3,0.4-0.6,0.5-1.1,0.5c-0.4,0-0.8-0.2-1-0.5C12.7,101.2,12.5,100.8,12.5,100.1L12.5,100.1z M12.9,100.2c0,0.5,0.1,0.8,0.3,1.1
	c0.2,0.3,0.5,0.4,0.8,0.4c0.5,0,0.9-0.2,1.1-0.7v-1.7c-0.1-0.2-0.2-0.4-0.4-0.5c-0.2-0.1-0.4-0.2-0.6-0.2c-0.3,0-0.6,0.1-0.8,0.4
	C13,99.3,12.9,99.7,12.9,100.2z M17,102h-0.4v-3.7H17V102z M16.5,97.2c0-0.1,0-0.1,0.1-0.2c0.1-0.1,0.1-0.1,0.2-0.1
	c0.1,0,0.2,0,0.2,0.1c0.1,0.1,0.1,0.1,0.1,0.2c0,0.1,0,0.1-0.1,0.2c-0.1,0.1-0.1,0.1-0.2,0.1c-0.1,0-0.2,0-0.2-0.1
	C16.6,97.4,16.5,97.3,16.5,97.2z M18.8,97.4v0.9h0.8v0.3h-0.8v2.5c0,0.2,0,0.4,0.1,0.5c0.1,0.1,0.2,0.1,0.4,0.1c0.1,0,0.2,0,0.3,0
	l0,0.3c-0.1,0-0.3,0.1-0.4,0.1c-0.3,0-0.5-0.1-0.6-0.2c-0.1-0.2-0.2-0.4-0.2-0.7v-2.5h-0.7v-0.3h0.7v-0.9H18.8z M22.7,102
	c0-0.1-0.1-0.3-0.1-0.5c-0.1,0.2-0.3,0.3-0.6,0.4c-0.2,0.1-0.5,0.2-0.7,0.2c-0.4,0-0.6-0.1-0.9-0.3c-0.2-0.2-0.3-0.4-0.3-0.8
	c0-0.4,0.1-0.6,0.4-0.9c0.3-0.2,0.7-0.3,1.3-0.3h0.7v-0.4c0-0.3-0.1-0.5-0.2-0.6c-0.2-0.2-0.4-0.2-0.7-0.2c-0.3,0-0.5,0.1-0.7,0.2
	c-0.2,0.1-0.3,0.3-0.3,0.5l-0.4,0c0-0.3,0.1-0.5,0.4-0.8c0.3-0.2,0.6-0.3,1-0.3c0.4,0,0.7,0.1,1,0.3c0.2,0.2,0.4,0.5,0.4,0.9v1.8
	c0,0.4,0,0.6,0.1,0.8v0H22.7z M21.4,101.7c0.3,0,0.5-0.1,0.7-0.2c0.2-0.1,0.4-0.3,0.5-0.5v-0.8h-0.7c-0.4,0-0.7,0.1-1,0.2
	c-0.2,0.1-0.3,0.3-0.3,0.6c0,0.2,0.1,0.4,0.2,0.5C21,101.6,21.2,101.7,21.4,101.7z M24.6,102h-0.4v-5.3h0.4V102z M28.6,97l1.8,4.4
	l1.8-4.4h0.6v5h-0.4v-2.2l0-2.2l-1.9,4.4h-0.3l-1.8-4.4l0,2.2v2.2H28v-5H28.6z M36.3,102c0-0.1-0.1-0.3-0.1-0.5
	c-0.1,0.2-0.3,0.3-0.6,0.4c-0.2,0.1-0.5,0.2-0.7,0.2c-0.4,0-0.6-0.1-0.9-0.3c-0.2-0.2-0.3-0.4-0.3-0.8c0-0.4,0.1-0.6,0.4-0.9
	c0.3-0.2,0.7-0.3,1.3-0.3h0.7v-0.4c0-0.3-0.1-0.5-0.2-0.6c-0.2-0.2-0.4-0.2-0.7-0.2c-0.3,0-0.5,0.1-0.7,0.2
	c-0.2,0.1-0.3,0.3-0.3,0.5l-0.4,0c0-0.3,0.1-0.5,0.4-0.8c0.3-0.2,0.6-0.3,1-0.3c0.4,0,0.7,0.1,1,0.3c0.2,0.2,0.4,0.5,0.4,0.9v1.8
	c0,0.4,0,0.6,0.1,0.8v0H36.3z M35,101.7c0.3,0,0.5-0.1,0.7-0.2c0.2-0.1,0.4-0.3,0.5-0.5v-0.8h-0.7c-0.4,0-0.7,0.1-1,0.2
	c-0.2,0.1-0.3,0.3-0.3,0.6c0,0.2,0.1,0.4,0.2,0.5C34.6,101.6,34.8,101.7,35,101.7z M39.4,98.6c-0.1,0-0.2,0-0.3,0
	c-0.3,0-0.5,0.1-0.6,0.2c-0.2,0.1-0.3,0.3-0.4,0.6v2.5h-0.4v-3.7h0.4l0,0.6c0.2-0.4,0.6-0.7,1-0.7c0.1,0,0.2,0,0.3,0L39.4,98.6z
	 M40.9,100.1l-0.5,0.4v1.4h-0.4v-5.3h0.4v3.4l0.4-0.4l1.4-1.4h0.5l-1.6,1.6l1.7,2.1h-0.5L40.9,100.1z M44.9,102.1
	c-0.3,0-0.6-0.1-0.9-0.2c-0.3-0.2-0.4-0.4-0.6-0.6c-0.1-0.3-0.2-0.6-0.2-0.9v-0.1c0-0.4,0.1-0.7,0.2-1c0.1-0.3,0.3-0.5,0.6-0.7
	c0.2-0.2,0.5-0.2,0.8-0.2c0.4,0,0.8,0.2,1.1,0.5c0.3,0.3,0.4,0.7,0.4,1.3v0.2h-2.6v0.1c0,0.4,0.1,0.8,0.4,1.1
	c0.2,0.3,0.5,0.4,0.9,0.4c0.2,0,0.4,0,0.6-0.1c0.2-0.1,0.3-0.2,0.5-0.4l0.3,0.2C45.9,101.8,45.5,102.1,44.9,102.1z M44.8,98.6
	c-0.3,0-0.6,0.1-0.8,0.3c-0.2,0.2-0.3,0.5-0.4,0.9h2.2v0c0-0.4-0.1-0.6-0.3-0.9C45.4,98.7,45.2,98.6,44.8,98.6z M47.7,97.4v0.9h0.8
	v0.3h-0.8v2.5c0,0.2,0,0.4,0.1,0.5c0.1,0.1,0.2,0.1,0.4,0.1c0.1,0,0.2,0,0.3,0l0,0.3c-0.1,0-0.3,0.1-0.4,0.1c-0.3,0-0.5-0.1-0.6-0.2
	c-0.1-0.2-0.2-0.4-0.2-0.7v-2.5h-0.7v-0.3h0.7v-0.9H47.7z M49.8,102h-0.4v-3.7h0.4V102z M49.3,97.2c0-0.1,0-0.1,0.1-0.2
	c0.1-0.1,0.1-0.1,0.2-0.1c0.1,0,0.2,0,0.2,0.1c0.1,0.1,0.1,0.1,0.1,0.2c0,0.1,0,0.1-0.1,0.2c-0.1,0.1-0.1,0.1-0.2,0.1
	c-0.1,0-0.2,0-0.2-0.1C49.4,97.4,49.3,97.3,49.3,97.2z M51.3,98.3l0,0.6c0.1-0.2,0.3-0.4,0.5-0.5c0.2-0.1,0.4-0.2,0.7-0.2
	c0.4,0,0.7,0.1,0.9,0.3c0.2,0.2,0.3,0.6,0.3,1v2.4h-0.4v-2.4c0-0.3-0.1-0.6-0.2-0.7c-0.1-0.2-0.4-0.2-0.7-0.2
	c-0.3,0-0.5,0.1-0.7,0.2c-0.2,0.2-0.3,0.4-0.4,0.6v2.5h-0.4v-3.7H51.3z M54.6,100.1c0-0.6,0.1-1,0.4-1.4c0.3-0.3,0.6-0.5,1-0.5
	c0.5,0,0.9,0.2,1.1,0.6l0-0.5h0.4v3.6c0,0.5-0.1,0.9-0.4,1.1s-0.6,0.4-1.1,0.4c-0.3,0-0.5-0.1-0.7-0.2c-0.2-0.1-0.4-0.3-0.6-0.5
	l0.2-0.2c0.3,0.4,0.6,0.5,1,0.5c0.3,0,0.6-0.1,0.8-0.3c0.2-0.2,0.3-0.5,0.3-0.8v-0.5c-0.3,0.4-0.6,0.5-1.1,0.5c-0.4,0-0.8-0.2-1-0.5
	C54.7,101.2,54.6,100.8,54.6,100.1L54.6,100.1z M55,100.2c0,0.5,0.1,0.8,0.3,1.1c0.2,0.3,0.5,0.4,0.8,0.4c0.5,0,0.9-0.2,1.1-0.7
	v-1.7c-0.1-0.2-0.2-0.4-0.4-0.5c-0.2-0.1-0.4-0.2-0.6-0.2c-0.3,0-0.6,0.1-0.8,0.4C55.1,99.3,55,99.7,55,100.2z M63.6,100.6h-2.3
	l-0.5,1.4h-0.4l1.9-5h0.4l1.9,5h-0.4L63.6,100.6z M61.5,100.2h2l-1-2.7L61.5,100.2z M65.1,100.1c0-0.6,0.1-1,0.4-1.4
	c0.3-0.3,0.6-0.5,1-0.5c0.5,0,0.9,0.2,1.1,0.6l0-0.5h0.4v3.6c0,0.5-0.1,0.9-0.4,1.1c-0.3,0.3-0.6,0.4-1.1,0.4
	c-0.3,0-0.5-0.1-0.7-0.2c-0.2-0.1-0.4-0.3-0.6-0.5l0.2-0.2c0.3,0.4,0.6,0.5,1,0.5c0.3,0,0.6-0.1,0.8-0.3c0.2-0.2,0.3-0.5,0.3-0.8
	v-0.5c-0.3,0.4-0.6,0.5-1.1,0.5c-0.4,0-0.8-0.2-1-0.5C65.2,101.2,65.1,100.8,65.1,100.1L65.1,100.1z M65.5,100.2
	c0,0.5,0.1,0.8,0.3,1.1c0.2,0.3,0.5,0.4,0.8,0.4c0.5,0,0.9-0.2,1.1-0.7v-1.7c-0.1-0.2-0.2-0.4-0.4-0.5c-0.2-0.1-0.4-0.2-0.6-0.2
	c-0.3,0-0.6,0.1-0.8,0.4C65.6,99.3,65.5,99.7,65.5,100.2z M70.5,102.1c-0.3,0-0.6-0.1-0.9-0.2c-0.3-0.2-0.4-0.4-0.6-0.6
	c-0.1-0.3-0.2-0.6-0.2-0.9v-0.1c0-0.4,0.1-0.7,0.2-1c0.1-0.3,0.3-0.5,0.6-0.7c0.2-0.2,0.5-0.2,0.8-0.2c0.4,0,0.8,0.2,1.1,0.5
	c0.3,0.3,0.4,0.7,0.4,1.3v0.2h-2.6v0.1c0,0.4,0.1,0.8,0.4,1.1c0.2,0.3,0.5,0.4,0.9,0.4c0.2,0,0.4,0,0.6-0.1c0.2-0.1,0.3-0.2,0.5-0.4
	l0.3,0.2C71.6,101.8,71.1,102.1,70.5,102.1z M70.5,98.6c-0.3,0-0.6,0.1-0.8,0.3c-0.2,0.2-0.3,0.5-0.4,0.9h2.2v0
	c0-0.4-0.1-0.6-0.3-0.9C71,98.7,70.8,98.6,70.5,98.6z M73.1,98.3l0,0.6c0.1-0.2,0.3-0.4,0.5-0.5c0.2-0.1,0.4-0.2,0.7-0.2
	c0.4,0,0.7,0.1,0.9,0.3c0.2,0.2,0.3,0.6,0.3,1v2.4h-0.4v-2.4c0-0.3-0.1-0.6-0.2-0.7c-0.1-0.2-0.4-0.2-0.7-0.2
	c-0.3,0-0.5,0.1-0.7,0.2c-0.2,0.2-0.3,0.4-0.4,0.6v2.5h-0.4v-3.7H73.1z M77.9,101.7c0.3,0,0.5-0.1,0.7-0.2c0.2-0.2,0.3-0.4,0.3-0.6
	h0.4c0,0.2-0.1,0.4-0.2,0.6c-0.1,0.2-0.3,0.3-0.5,0.4c-0.2,0.1-0.4,0.2-0.7,0.2c-0.5,0-0.9-0.2-1.2-0.5c-0.3-0.3-0.4-0.8-0.4-1.4
	v-0.1c0-0.4,0.1-0.7,0.2-1c0.1-0.3,0.3-0.5,0.5-0.6c0.2-0.2,0.5-0.2,0.8-0.2c0.4,0,0.7,0.1,1,0.4c0.3,0.2,0.4,0.6,0.4,1H79
	c0-0.3-0.1-0.5-0.3-0.7c-0.2-0.2-0.4-0.3-0.7-0.3c-0.4,0-0.7,0.1-0.9,0.4c-0.2,0.3-0.3,0.6-0.3,1.1v0.1c0,0.5,0.1,0.8,0.3,1.1
	C77.3,101.6,77.6,101.7,77.9,101.7z M81.3,101.4l1.1-3.1h0.4l-1.6,4.3l-0.1,0.2c-0.2,0.4-0.5,0.7-0.9,0.7c-0.1,0-0.2,0-0.3,0l0-0.3
	l0.2,0c0.2,0,0.4,0,0.5-0.1c0.1-0.1,0.2-0.3,0.3-0.5l0.2-0.5l-1.4-3.7h0.4L81.3,101.4z"/>
<path class="st2" d="M9.9,70.2c0.3,0,0.5,0,0.7,0c0.2,0,0.4,0,0.5-0.1c0.1,0,0.3-0.1,0.3-0.1c0.1,0,0.1-0.1,0.2-0.2v0c0,0,0,0,0-0.1
	c0,0,0-0.1,0-0.1c0,0,0-0.1,0-0.2c0-0.1,0-0.1-0.1-0.2c0-0.1-0.1-0.1-0.1-0.2c0-0.1-0.1-0.1-0.1-0.2c-0.2-0.3-0.4-0.5-0.5-0.7
	c-0.1-0.2-0.3-0.3-0.4-0.5c-0.1-0.1-0.2-0.3-0.3-0.4l0.2-0.8l3.3-1.6l0.4,0.8l-2.9,1.3l1.1,1.6c0.1,0.2,0.3,0.4,0.4,0.5
	c0.1,0.1,0.2,0.3,0.3,0.4c0.1,0.1,0.2,0.2,0.3,0.2c0.1,0.1,0.2,0.1,0.3,0.2c0.1,0,0.2,0.1,0.3,0.1c0.1,0,0.2,0,0.3,0h0.1v0.9h-0.1
	c-0.2,0-0.4,0-0.6-0.1c-0.2,0-0.3-0.1-0.5-0.2c-0.1-0.1-0.3-0.2-0.4-0.3c-0.1-0.1-0.2-0.2-0.3-0.3c-0.1,0.2-0.2,0.4-0.4,0.5
	c-0.2,0.1-0.4,0.2-0.6,0.2C11.2,71,11,71,10.7,71.1c-0.3,0-0.5,0-0.8,0l-2.2,0c-0.2,0-0.4,0-0.5-0.1s-0.3-0.2-0.4-0.3
	c0,0-0.1-0.1-0.2-0.2c-0.1-0.1-0.1-0.1-0.1-0.2c0-0.1-0.1-0.2-0.1-0.3c0-0.1,0-0.2,0-0.4c0-0.1,0-0.3,0-0.4c0-0.1,0.1-0.3,0.1-0.4
	c0-0.1,0.1-0.2,0.1-0.3c0-0.1,0-0.2,0.1-0.2L7,68.4l0.4,0.1c0,0.1,0,0.1-0.1,0.2c0,0.1,0,0.2-0.1,0.3c0,0.1,0,0.2-0.1,0.3
	c0,0.1,0,0.2,0,0.2c0,0.1,0,0.2,0,0.3c0,0.1,0.1,0.1,0.1,0.2c0,0,0.1,0.1,0.2,0.1c0.1,0,0.1,0,0.2,0L9.9,70.2L9.9,70.2z M10.6,65.4
	l2.8-1.2l0.2,0.4l-3.1,1.3L10.6,65.4z M17.1,70.1v0.9h-0.2c-0.2,0-0.4,0-0.6-0.1c-0.2-0.1-0.3-0.1-0.4-0.3c-0.1,0.1-0.3,0.2-0.5,0.3
	c-0.2,0.1-0.4,0.1-0.6,0.1h-0.7v-0.9h0.7c0.2,0,0.3,0,0.4,0c0.1,0,0.2-0.1,0.2-0.1c0,0,0.1-0.1,0.1-0.1c0-0.1,0-0.1,0-0.2v-1.2h0.9
	v1.2c0,0.1,0,0.2,0.1,0.3c0,0.1,0.1,0.1,0.2,0.1c0.1,0,0.1,0,0.2,0.1c0.1,0,0.1,0,0.1,0H17.1z M15,66.8l0.7-0.7l0.7,0.7l-0.7,0.7
	L15,66.8z M21,70.1v0.9h-0.6c-0.2,0-0.4,0-0.6-0.1c-0.2-0.1-0.3-0.1-0.4-0.3c-0.1,0.1-0.3,0.2-0.5,0.3c-0.2,0.1-0.4,0.1-0.6,0.1H17
	v-0.9h1.3c0.2,0,0.3,0,0.4,0c0.1,0,0.2-0.1,0.2-0.1c0,0,0.1-0.1,0.1-0.1c0-0.1,0-0.1,0-0.2v-1.2h0.9v1.2c0,0.1,0,0.2,0.1,0.3
	c0,0.1,0.1,0.1,0.2,0.1c0.1,0,0.1,0,0.2,0.1c0.1,0,0.1,0,0.1,0H21z M19.5,73.1l-0.6-0.6l0.6-0.6l0.6,0.6L19.5,73.1z M18,73.1
	l-0.6-0.6l0.6-0.6l0.6,0.6L18,73.1z M23.7,67.5L23,66.9l0.6-0.6l0.6,0.6L23.7,67.5z M22.1,67.5l-0.6-0.6l0.6-0.6l0.6,0.6L22.1,67.5z
	 M24.9,70.1v0.9h-0.6c-0.2,0-0.4,0-0.6-0.1c-0.2-0.1-0.3-0.1-0.4-0.3c-0.1,0.1-0.3,0.2-0.5,0.3c-0.2,0.1-0.4,0.1-0.6,0.1h-1.3v-0.9
	h1.3c0.2,0,0.3,0,0.4,0c0.1,0,0.2-0.1,0.2-0.1c0,0,0.1-0.1,0.1-0.1c0-0.1,0-0.1,0-0.2v-1.2h0.9v1.2c0,0.1,0,0.2,0.1,0.3
	c0,0.1,0.1,0.1,0.2,0.1c0.1,0,0.1,0,0.2,0.1c0.1,0,0.1,0,0.1,0H24.9z M24.8,71.1v-0.9H27c0,0,0.1,0,0.2,0c0.1,0,0.1,0,0.2,0
	c0.1,0,0.1,0,0.2-0.1c0,0,0.1-0.1,0.1-0.1c0-0.1,0-0.2-0.1-0.4c-0.1-0.2-0.2-0.3-0.3-0.5c-0.1-0.2-0.3-0.3-0.4-0.5
	c-0.2-0.2-0.3-0.3-0.5-0.5c-0.2-0.2-0.3-0.3-0.4-0.4c-0.1-0.1-0.2-0.2-0.3-0.3l0.1-0.8l3.2-1.5l0.3,0.8L26.5,67
	c0.1,0.1,0.2,0.2,0.3,0.3c0.1,0.1,0.2,0.2,0.4,0.4c0.1,0.1,0.2,0.3,0.4,0.4c0.1,0.1,0.2,0.3,0.3,0.4c0.1,0.1,0.2,0.3,0.3,0.4
	c0.1,0.1,0.2,0.3,0.2,0.4c0,0.1,0.1,0.2,0.1,0.3c0,0.1,0,0.2,0,0.3c0,0.1,0,0.2,0,0.3c0,0.1,0,0.1-0.1,0.2c0,0.1-0.1,0.1-0.1,0.2
	c-0.1,0.1-0.1,0.2-0.3,0.2c-0.1,0.1-0.2,0.1-0.4,0.2c-0.2,0-0.4,0.1-0.6,0.1H24.8z M30.9,70.8c0,0.3-0.1,0.7-0.2,0.9
	c-0.1,0.3-0.3,0.5-0.5,0.7c-0.2,0.2-0.4,0.3-0.7,0.4s-0.6,0.2-0.9,0.2h-0.5v-0.9h0.5c0.2,0,0.4,0,0.6-0.1c0.2,0,0.3-0.1,0.4-0.2
	c0.1-0.1,0.2-0.3,0.2-0.4C30,71.2,30,71,30,70.8v-2.3h0.9V70.8z M33.7,71.1c-0.3,0-0.5,0-0.7-0.1c-0.2,0-0.4-0.1-0.5-0.1
	c-0.1-0.1-0.2-0.2-0.3-0.3c-0.1-0.1-0.1-0.2-0.2-0.4c0-0.1-0.1-0.3-0.1-0.5c0-0.2,0-0.4,0-0.6v-3.5h0.9v3.5c0,0.2,0,0.4,0,0.5
	c0,0.1,0.1,0.2,0.1,0.3c0.1,0.1,0.1,0.1,0.3,0.1c0.1,0,0.3,0,0.5,0V71.1z M36.3,70.4c0,0,0.1,0,0.1,0c0,0,0.1,0,0.1-0.1
	c0,0,0.1-0.1,0.1-0.2c0-0.1,0.1-0.2,0.1-0.4c0-0.1,0-0.1,0-0.2c0-0.1-0.1-0.2-0.1-0.3c-0.1-0.1-0.1-0.2-0.2-0.2
	c-0.1-0.1-0.2-0.1-0.4-0.1c-0.1,0-0.2,0-0.3,0.1c-0.1,0.1-0.2,0.2-0.2,0.3c-0.1,0.1-0.1,0.2-0.1,0.4c0,0.1-0.1,0.3-0.1,0.4
	c0.1,0.1,0.2,0.1,0.3,0.2c0.1,0.1,0.2,0.1,0.3,0.1c0.1,0,0.2,0.1,0.3,0.1C36.1,70.3,36.2,70.4,36.3,70.4z M36,67.8
	c0.3,0,0.5,0,0.7,0.1c0.2,0.1,0.4,0.2,0.5,0.4c0.1,0.2,0.2,0.3,0.3,0.6c0.1,0.2,0.1,0.4,0.1,0.7c0,0.3,0,0.5-0.1,0.7
	c0,0.2-0.1,0.3-0.2,0.5c-0.1,0.1-0.2,0.2-0.2,0.3c-0.1,0.1-0.2,0.1-0.3,0.2c-0.1,0-0.2,0.1-0.3,0.1c-0.1,0-0.2,0-0.2,0
	c-0.1,0-0.2,0-0.4,0c-0.1,0-0.2-0.1-0.3-0.1c-0.1,0-0.2-0.1-0.4-0.2c-0.1-0.1-0.3-0.1-0.4-0.2c-0.1,0.1-0.2,0.2-0.4,0.3
	c-0.1,0-0.3,0.1-0.4,0.1h-0.5l0-0.9H34c0.1,0,0.1,0,0.1,0c0,0,0.1-0.1,0.1-0.1c0-0.1,0.1-0.1,0.1-0.2c0-0.1,0.1-0.2,0.1-0.3
	c0-0.2,0.1-0.4,0.2-0.6c0.1-0.2,0.2-0.4,0.3-0.5c0.1-0.2,0.3-0.3,0.4-0.4C35.5,67.9,35.7,67.8,36,67.8z M42.7,73.1
	c-0.2,0-0.3,0-0.5-0.1c-0.2,0-0.3-0.1-0.5-0.2c-0.1-0.1-0.3-0.2-0.4-0.3c-0.1-0.1-0.2-0.2-0.3-0.4c0-0.1-0.1-0.1-0.1-0.2
	c0-0.1-0.1-0.2-0.1-0.3c0-0.1-0.1-0.2-0.1-0.3c0-0.1,0-0.3,0-0.4c0-0.1,0-0.2,0-0.4c0-0.1,0-0.3,0.1-0.4c0-0.1,0.1-0.3,0.1-0.5
	c0.1-0.2,0.1-0.4,0.2-0.6l0.8,0.4c-0.1,0.2-0.1,0.3-0.2,0.4c0,0.1-0.1,0.2-0.1,0.4c0,0.1-0.1,0.2-0.1,0.3c0,0.1,0,0.2,0,0.3
	c0,0.1,0,0.3,0,0.4c0,0.1,0.1,0.2,0.1,0.3l0,0c0.1,0.1,0.2,0.2,0.4,0.3c0.2,0.1,0.3,0.1,0.5,0.1h0.2c0.3,0,0.5,0,0.6-0.1
	c0.2-0.1,0.3-0.1,0.4-0.2c0.1-0.1,0.2-0.2,0.2-0.4c0-0.1,0.1-0.3,0.1-0.5v-5.4H45V71c0,1.4-0.7,2.1-2.2,2.1H42.7z M47.9,71.1
	c-0.3,0-0.5,0-0.7-0.1c-0.2,0-0.4-0.1-0.5-0.1c-0.1-0.1-0.2-0.2-0.3-0.3c-0.1-0.1-0.1-0.2-0.2-0.4c0-0.1-0.1-0.3-0.1-0.5
	c0-0.2,0-0.4,0-0.6v-3.5h0.9v3.5c0,0.2,0,0.4,0,0.5c0,0.1,0.1,0.2,0.1,0.3c0.1,0.1,0.1,0.1,0.3,0.1c0.1,0,0.3,0,0.5,0V71.1z
	 M50.5,67.5l-0.6-0.6l0.6-0.6l0.6,0.6L50.5,67.5z M49,67.5l-0.6-0.6l0.6-0.6l0.6,0.6L49,67.5z M51.8,70.1v0.9h-0.6
	c-0.2,0-0.4,0-0.6-0.1c-0.2-0.1-0.3-0.1-0.4-0.3c-0.1,0.1-0.3,0.2-0.5,0.3c-0.2,0.1-0.4,0.1-0.6,0.1h-1.3v-0.9h1.3
	c0.2,0,0.3,0,0.4,0c0.1,0,0.2-0.1,0.2-0.1c0,0,0.1-0.1,0.1-0.1c0-0.1,0-0.1,0-0.2v-1.2h0.9v1.2c0,0.1,0,0.2,0.1,0.3
	c0,0.1,0.1,0.1,0.2,0.1c0.1,0,0.1,0,0.2,0.1c0.1,0,0.1,0,0.1,0H51.8z M55.7,70.1v0.9h-0.6c-0.2,0-0.4,0-0.6-0.1
	c-0.2-0.1-0.3-0.1-0.4-0.3c-0.1,0.1-0.3,0.2-0.5,0.3c-0.2,0.1-0.4,0.1-0.6,0.1h-1.3v-0.9H53c0.2,0,0.3,0,0.4,0
	c0.1,0,0.2-0.1,0.2-0.1c0,0,0.1-0.1,0.1-0.1c0-0.1,0-0.1,0-0.2v-1.2h0.9v1.2c0,0.1,0,0.2,0.1,0.3c0,0.1,0.1,0.1,0.2,0.1
	c0.1,0,0.1,0,0.2,0.1c0.1,0,0.1,0,0.1,0H55.7z M54.2,73.1l-0.6-0.6l0.6-0.6l0.6,0.6L54.2,73.1z M52.6,73.1L52,72.5l0.6-0.6l0.6,0.6
	L52.6,73.1z M60.7,69.6c0,0-0.1,0-0.1,0.1c-0.1,0-0.2,0.1-0.3,0.2c0,0.1,0.1,0.1,0.1,0.2c0.1,0,0.1,0.1,0.2,0.1c0.1,0,0.1,0,0.2,0
	c0,0,0.1,0,0.1,0h0.7v0.9h-0.7c-0.3,0-0.6-0.1-0.8-0.2c-0.2-0.1-0.4-0.3-0.5-0.6c-0.2,0.1-0.4,0.2-0.6,0.3c-0.2,0.1-0.5,0.2-0.7,0.2
	c-0.2,0.1-0.5,0.1-0.7,0.2c-0.3,0-0.5,0.1-0.8,0.1h-1.1v-0.9h1.1c0.2,0,0.5,0,0.8-0.1c0.3,0,0.5-0.1,0.8-0.2
	c0.3-0.1,0.5-0.2,0.8-0.3c0.2-0.1,0.5-0.2,0.6-0.3c-0.1,0-0.2-0.1-0.4-0.1c-0.1,0-0.3-0.1-0.4-0.1c-0.1,0-0.3-0.1-0.4-0.1
	c-0.1,0-0.3-0.1-0.4-0.1c-0.1,0-0.2-0.1-0.3-0.1c-0.1,0-0.2,0-0.2,0c-0.1,0-0.1,0-0.2,0c0,0-0.1,0-0.1,0.1c0,0-0.1,0.1-0.1,0.1
	c0,0-0.1,0.1-0.1,0.2l-0.9-0.3c0-0.1,0.1-0.3,0.2-0.4c0.1-0.1,0.2-0.2,0.2-0.3c0.1-0.1,0.2-0.2,0.3-0.2c0.1-0.1,0.3-0.1,0.4-0.1
	c0.1,0,0.2,0,0.3,0c0.1,0,0.3,0.1,0.4,0.1c0.2,0,0.3,0.1,0.5,0.2c0.2,0.1,0.3,0.1,0.5,0.2c0.2,0.1,0.3,0.1,0.5,0.2
	c0.2,0.1,0.3,0.1,0.4,0.2c0.1,0,0.2,0.1,0.3,0.1c0.1,0,0.1,0.1,0.2,0.1L60.7,69.6z M57.6,72.3l0.7-0.7l0.7,0.7L58.2,73L57.6,72.3z
	 M64,67.9c0,0,0,0.1,0,0.1c0,0.1,0,0.1,0.1,0.2c0,0.1,0,0.2,0.1,0.3c0,0.1,0,0.2,0.1,0.3c0,0.1,0,0.2,0,0.3c0,0.1,0,0.2,0,0.3
	c0,0.3,0,0.5-0.1,0.7c-0.1,0.2-0.2,0.3-0.3,0.5c-0.1,0.1-0.3,0.2-0.5,0.3c-0.2,0.1-0.3,0.1-0.5,0.1h-1.6v-0.9h1.6c0,0,0.1,0,0.1,0
	c0.1,0,0.1,0,0.2-0.1c0.1,0,0.1-0.1,0.1-0.2c0-0.1,0.1-0.2,0.1-0.3c0-0.1,0-0.1,0-0.2c0-0.1,0-0.2,0-0.3s0-0.2-0.1-0.3
	c0-0.1,0-0.2-0.1-0.3c0-0.1,0-0.2-0.1-0.2c0-0.1,0-0.1,0-0.2L64,67.9z M63.6,73.1L63,72.4l0.6-0.6l0.6,0.6L63.6,73.1z M62,73.1
	l-0.6-0.6l0.6-0.6l0.6,0.6L62,73.1z M66.5,71.1c-0.1,0-0.2,0-0.3,0c-0.1,0-0.2,0-0.3,0c-0.1,0-0.2,0-0.3-0.1c-0.1,0-0.2-0.1-0.3-0.1
	l-0.4-0.1l0.3-0.9c0.2,0.1,0.4,0.1,0.7,0.2c0.2,0.1,0.5,0.1,0.7,0.1c0.2,0,0.4,0,0.5,0c0.2,0,0.3-0.1,0.3-0.2c0,0,0-0.1,0-0.1
	c0-0.1,0-0.1-0.1-0.2l-1.4-2l0.8-0.5l0.3,0.4c0,0,0,0,0,0c0,0,0,0,0.1,0.1c0,0,0.1,0.1,0.1,0.2c0,0.1,0.1,0.2,0.2,0.3
	c0.1,0.1,0.2,0.3,0.3,0.4c0.1,0.2,0.3,0.4,0.4,0.6c0.1,0.2,0.2,0.4,0.2,0.6c0,0.2,0,0.4-0.1,0.6c0,0.1-0.1,0.2-0.2,0.3
	c-0.1,0.1-0.2,0.2-0.2,0.2c-0.2,0.1-0.4,0.2-0.6,0.2C66.9,71,66.7,71.1,66.5,71.1z M73,71.1c-0.1,0-0.2,0-0.3,0c-0.1,0-0.2,0-0.3,0
	c-0.1,0-0.2,0-0.3-0.1c-0.1,0-0.2-0.1-0.3-0.1l-0.4-0.1l0.3-0.9c0.2,0.1,0.4,0.1,0.7,0.2c0.2,0.1,0.5,0.1,0.7,0.1c0.2,0,0.4,0,0.5,0
	c0.2,0,0.3-0.1,0.3-0.2c0,0,0-0.1,0-0.1c0-0.1,0-0.1-0.1-0.2l-1.4-2l0.8-0.5l0.3,0.4c0,0,0,0,0,0c0,0,0,0,0.1,0.1
	c0,0,0.1,0.1,0.1,0.2c0,0.1,0.1,0.2,0.2,0.3c0.1,0.1,0.2,0.3,0.3,0.4c0.1,0.2,0.3,0.4,0.4,0.6c0.1,0.2,0.2,0.4,0.2,0.6
	c0,0.2,0,0.4-0.1,0.6c0,0.1-0.1,0.2-0.2,0.3c-0.1,0.1-0.2,0.2-0.2,0.2C74,70.9,73.8,71,73.6,71C73.4,71,73.2,71.1,73,71.1z
	 M77.4,71.1c-0.3,0-0.5,0-0.7-0.1c-0.2,0-0.4-0.1-0.5-0.1c-0.1-0.1-0.2-0.2-0.3-0.3c-0.1-0.1-0.1-0.2-0.2-0.4c0-0.1-0.1-0.3-0.1-0.5
	c0-0.2,0-0.4,0-0.6v-3.5h0.9v3.5c0,0.2,0,0.4,0,0.5c0,0.1,0.1,0.2,0.1,0.3c0.1,0.1,0.1,0.1,0.3,0.1c0.1,0,0.3,0,0.5,0V71.1z
	 M80,70.4c0,0,0.1,0,0.1,0c0,0,0.1,0,0.1-0.1c0,0,0.1-0.1,0.1-0.2c0-0.1,0.1-0.2,0.1-0.4c0-0.1,0-0.1,0-0.2c0-0.1-0.1-0.2-0.1-0.3
	c-0.1-0.1-0.1-0.2-0.2-0.2c-0.1-0.1-0.2-0.1-0.4-0.1c-0.1,0-0.2,0-0.3,0.1c-0.1,0.1-0.2,0.2-0.2,0.3c-0.1,0.1-0.1,0.2-0.1,0.4
	c0,0.1-0.1,0.3-0.1,0.4c0.1,0.1,0.2,0.1,0.3,0.2c0.1,0.1,0.2,0.1,0.3,0.1c0.1,0,0.2,0.1,0.3,0.1C79.9,70.3,79.9,70.4,80,70.4z
	 M79.7,67.8c0.3,0,0.5,0,0.7,0.1c0.2,0.1,0.4,0.2,0.5,0.4c0.1,0.2,0.2,0.3,0.3,0.5c0.1,0.2,0.1,0.4,0.1,0.6c0,0.1,0,0.2,0.1,0.3
	c0.1,0.1,0.1,0.1,0.2,0.2s0.1,0.1,0.2,0.1c0.1,0,0.1,0,0.1,0h0.1v0.9h-0.1c-0.2,0-0.3,0-0.5-0.1c-0.1-0.1-0.3-0.1-0.4-0.2
	c-0.1,0.1-0.2,0.2-0.2,0.2c-0.1,0.1-0.2,0.1-0.3,0.1c-0.1,0-0.2,0-0.3,0.1c-0.1,0-0.2,0-0.2,0c-0.1,0-0.2,0-0.4,0
	c-0.1,0-0.2-0.1-0.3-0.1c-0.1,0-0.2-0.1-0.4-0.2c-0.1-0.1-0.3-0.1-0.4-0.2c-0.1,0.1-0.2,0.2-0.4,0.3c-0.1,0-0.3,0.1-0.4,0.1h-0.5
	l0-0.9h0.5c0.1,0,0.1,0,0.1,0c0,0,0.1-0.1,0.1-0.1c0-0.1,0.1-0.1,0.1-0.2c0-0.1,0.1-0.2,0.1-0.3c0-0.2,0.1-0.4,0.2-0.6
	c0.1-0.2,0.2-0.4,0.3-0.5c0.1-0.2,0.3-0.3,0.4-0.4C79.2,67.9,79.4,67.8,79.7,67.8z M83.9,67.9c0,0,0,0.1,0,0.1c0,0.1,0,0.1,0.1,0.2
	c0,0.1,0,0.2,0.1,0.3c0,0.1,0,0.2,0.1,0.3c0,0.1,0,0.2,0,0.3c0,0.1,0,0.2,0,0.3c0,0.3,0,0.5-0.1,0.7c-0.1,0.2-0.2,0.3-0.3,0.5
	c-0.1,0.1-0.3,0.2-0.5,0.3c-0.2,0.1-0.3,0.1-0.5,0.1h-1v-0.9h1c0,0,0.1,0,0.1,0c0.1,0,0.1,0,0.2-0.1c0.1,0,0.1-0.1,0.1-0.2
	c0-0.1,0.1-0.2,0.1-0.3c0-0.1,0-0.1,0-0.2c0-0.1,0-0.2,0-0.3s0-0.2-0.1-0.3c0-0.1,0-0.2-0.1-0.3c0-0.1,0-0.2-0.1-0.2
	c0-0.1,0-0.1,0-0.2L83.9,67.9z M82.3,66.4l0.7-0.7l0.7,0.7L83,67.1L82.3,66.4z"/>
</svg>
